<?xml version="1.0" encoding="UTF-8"?>
<svg id="Layer_2" data-name="Layer 2" xmlns="http://www.w3.org/2000/svg" viewBox="0 0 102.34 123.58">
  <defs>
    <style>
      .cls-1 {
        fill: #fff;
      }

      .cls-1, .cls-2 {
        stroke-width: 0px;
      }

      .cls-2 {
        fill: #01695e;
      }
    </style>
  </defs>
  <g id="Layer_1-2" data-name="Layer 1">
    <g>
      <polygon class="cls-1" points="0 0 .03 82.5 51.17 123.58 102.34 82.5 102.34 0 0 0"/>
      <path class="cls-2" d="m0,0l.03,82.5,51.14,41.09,51.17-41.09V0S0,0,0,0Zm41.31,68.74c-2.51-2.42-3.46-1.9-3.58-.06-.98-1.34-.65-3.44,1-4.11,1.65-.67,3.44,1.66,5.15,1.84,1.14.12,3.47-.18,4.21-.61-.06,1.53,1.75,3.67,3.01,4.35-.19.67-.57,1.35-1.71,1.22-1.14-.12-1.64-1.35-3.63-1.47,0,.8-.97,1.96-1.99,1.9.51-.3.34-.73.11-1.41-1.08.49-2.5-.49-2.56-1.65m31.68,5.27c-.26,1.27-3.92.49-4.15,2.08-.09.68.85.92.85,1.96,0,1.22-1.14,1.84-2.1,2.26.45-.55.51-2.02.06-2.32-.23.3-1.31,2.26-4.15,1.16-2.84-1.1-2.9.06-2.44,1.65-2.39-.98-1.89-3.47-.97-4.35,1.54-1.47,4.1.49,5.92-1.65.54-.64-.71-2.39.28-4.29,1.19-2.27,4.8-3.55,6.31-2.27-.74.31-1.53,1.1-1.53,2.27s2.33,1.53,1.93,3.49m15.27,5.02c.02-.74.25-1.53-.32-1.84-1.82,1.96-5.27-.1-6.37.57-1.1.67-.57,1.29-.47,1.96-2.45-.57-1.72-5.98,2.54-4.7.15-.8-1.31-1.73-3.05-2.16h0c-1.15-.28-2.42-.35-3.43,0-.44.15-.82.37-1.14.68-.01-.22-.02-.44-.04-.68-.14-2.35-.47-5.54-3.98-6.19-4.74-.87-8.21,5.31-12.71,6.19h-.03c-.66.13-1.35.15-2.06,0-.45-.09-.91-.24-1.39-.47-.04.17-.1.33-.16.47-.69,1.63-2.41,1.86-2.67,2.94-.28,1.19,1.04,3.86-1.69,5.31.28-1.29.34-1.66.06-2.07-2.64,3.61-5.75.07-6.57.64-.82.57-.44,1.65-.44,1.65,0,0-1.82-.84-1.1-2.53.72-1.69,2.99-1.93,5.19-1.05,0-2.05,1.45-3.44,2.56-4.9.54-.71,1-1.44,1.17-2.26.53-2.53-.16-3.39-.97-4.12,0,.98.03,1.4.12,2.48-2.82-1.65-3.52-6.46-.88-10.38-.73-.51-.96-1.41-1.06-2.22.52.46,1.6.22,1.75-.48-.73-.42-2.29-.4-2.66,1.14-.65-.98-1.11-4.4,3.07-4.31.39-1.32,1.8-2.29,4.53-1.47,2.73.82,3.41,2.41,2.94,5.66-.48,3.25-.09,3.87.81,3.87s1.21-1.85.59-4.22c-.62-2.37-.97-8.51,4.59-8.61,5.56-.1,13.94,3.31,21.73-.55-7.28,7.72-14.69,3.94-17.52,5.39.91.98,3.31.92,5.71.61-1.44,6.06-5.71,3-8,4.02,1.53,1.08,4.4,1.18,5.65.67-.48,3.82-7.28,1.31-8.1,4.9,2.54-1.55,7.22-2.37,10.77-.41,3.54,1.96,4.04,4.06,4.95,6.8,1.1.47,3.3.31,4.83-.1.17,1.1.71,2.44,1.32,3.61h0c.42.81.86,1.54,1.22,2.06,1.67-.37,2.97,2.39.7,4.11m-10.47-22.86c.06,1.9,4.84,2.34,5.01,5.28.11,1.92-1.85,2.82-3.55,2.73-.68-1.29-3.56-2.97-4.92-3.18.37-1.37,2.96-1.26,5.35-.7-2.53-1.35-3.61-3-3.64-3.98-.03-.92.03-3.43,3.89-3.49,3.87-.06,5.64,3.55,5.24,6.24-1.88-3.25-4.07-3.3-4.81-1.59-.63-.67-.91-1.65,0-2.63-1.15-.68-2.61-.08-2.57,1.34M8.31,75.35V8.44h83.07L8.31,75.35Z"/>
      <path class="cls-2" d="m53.68,53.55c.62.11,1.05-.43,1.05-.43l-1.59-.25s.08.59.54.67"/>
      <path class="cls-2" d="m41.37,33.87h3.36v-1.88h-13v1.88h3.85v7.44c-1.57.49-2.2.63-3.45.63-6.23,0-11.43-5.78-11.43-12.73s4.75-12.78,10.85-12.78c2.65,0,4.44.49,6.73,1.7v3.41h2.46v-7.98h-2.46v1.66c-2.92-1.03-4.57-1.34-7.31-1.34-2.42,0-4.66.36-6.64.98-5.87,1.93-9.95,7.85-9.95,14.35,0,9.01,6.91,15.43,16.72,15.43,3.09,0,5.87-.5,10.27-1.7v-9.06Z"/>
    </g>
  </g>
</svg>